{
    "asset" : {
        "generator" : "Khronos glTF Blender I/O v3.4.50",
        "version" : "2.0"
    },
    "extensionsUsed" : [
        "KHR_materials_transmission",
        "KHR_materials_emissive_strength",
        "KHR_materials_ior"
    ],
    "scene" : 0,
    "scenes" : [
        {
            "name" : "Scene",
            "nodes" : [
                0,
                1,
                2,
                3
            ]
        }
    ],
    "nodes" : [
        {
            "mesh" : 0,
            "name" : "Keys",
            "scale" : [
                0.21499134600162506,
                0.21499134600162506,
                0.21499134600162506
            ],
            "translation" : [
                -3.45867919921875,
                0.3260905146598816,
                1.018194317817688
            ]
        },
        {
            "mesh" : 1,
            "name" : "Ligthing",
            "scale" : [
                1.3723200559616089,
                0.1799468696117401,
                0.16695334017276764
            ],
            "translation" : [
                -0.2288246601819992,
                0.41300061345100403,
                0.9208797812461853
            ]
        },
        {
            "mesh" : 2,
            "name" : "Base",
            "scale" : [
                3.508477210998535,
                1.3605163097381592,
                1.3605163097381592
            ],
            "translation" : [
                0.04822062328457832,
                0.238210067152977,
                0.10447800159454346
            ]
        },
        {
            "mesh" : 3,
            "name" : "Text",
            "scale" : [
                0.0751519575715065,
                0.0751519575715065,
                0.0751519575715065
            ],
            "translation" : [
                2.6913299560546875,
                0.8744624257087708,
                -0.8598823547363281
            ]
        }
    ],
    "materials" : [
        {
            "doubleSided" : true,
            "name" : "Keys1",
            "pbrMetallicRoughness" : {
                "baseColorFactor" : [
                    0.800000011920929,
                    0.800000011920929,
                    0.800000011920929,
                    1
                ],
                "metallicFactor" : 0
            }
        },
        {
            "doubleSided" : true,
            "name" : "Keys2",
            "pbrMetallicRoughness" : {
                "baseColorFactor" : [
                    0.4413052797317505,
                    0.6439303159713745,
                    0.8000000715255737,
                    1
                ],
                "metallicFactor" : 0
            }
        },
        {
            "doubleSided" : true,
            "name" : "Material.001",
            "pbrMetallicRoughness" : {
                "baseColorFactor" : [
                    0.8000000715255737,
                    0.48693275451660156,
                    0.7285580039024353,
                    1
                ],
                "metallicFactor" : 0
            }
        },
        {
            "doubleSided" : true,
            "emissiveFactor" : [
                1,
                0.06321808695793152,
                0.4252556562423706
            ],
            "extensions" : {
                "KHR_materials_transmission" : {
                    "transmissionFactor" : 0.8503937125205994
                },
                "KHR_materials_emissive_strength" : {
                    "emissiveStrength" : 60
                },
                "KHR_materials_ior" : {
                    "ior" : 1.4500000476837158
                }
            },
            "name" : "text",
            "pbrMetallicRoughness" : {
                "baseColorFactor" : [
                    0.5595988631248474,
                    0.5027461647987366,
                    0.4264073669910431,
                    1
                ],
                "metallicFactor" : 0
            }
        },
        {
            "doubleSided" : true,
            "name" : "Base2",
            "pbrMetallicRoughness" : {
                "baseColorFactor" : [
                    1,
                    0.47513049840927124,
                    0.5135875940322876,
                    1
                ],
                "metallicFactor" : 0
            }
        },
        {
            "doubleSided" : true,
            "name" : "Base",
            "pbrMetallicRoughness" : {
                "baseColorFactor" : [
                    0.8000000715255737,
                    0.7702553868293762,
                    0.747089684009552,
                    1
                ],
                "metallicFactor" : 0
            }
        }
    ],
    "meshes" : [
        {
            "name" : "Plane.120",
            "primitives" : [
                {
                    "attributes" : {
                        "POSITION" : 0,
                        "TEXCOORD_0" : 1,
                        "NORMAL" : 2
                    },
                    "indices" : 3,
                    "material" : 0
                },
                {
                    "attributes" : {
                        "POSITION" : 4,
                        "TEXCOORD_0" : 5,
                        "NORMAL" : 6
                    },
                    "indices" : 7,
                    "material" : 1
                },
                {
                    "attributes" : {
                        "POSITION" : 8,
                        "TEXCOORD_0" : 9,
                        "NORMAL" : 10
                    },
                    "indices" : 11,
                    "material" : 2
                }
            ]
        },
        {
            "name" : "Plane.155",
            "primitives" : [
                {
                    "attributes" : {
                        "POSITION" : 12,
                        "TEXCOORD_0" : 13,
                        "NORMAL" : 14
                    },
                    "indices" : 15,
                    "material" : 3
                }
            ]
        },
        {
            "name" : "Plane.154",
            "primitives" : [
                {
                    "attributes" : {
                        "POSITION" : 16,
                        "TEXCOORD_0" : 17,
                        "NORMAL" : 18
                    },
                    "indices" : 19,
                    "material" : 4
                },
                {
                    "attributes" : {
                        "POSITION" : 20,
                        "TEXCOORD_0" : 21,
                        "NORMAL" : 22
                    },
                    "indices" : 23,
                    "material" : 5
                },
                {
                    "attributes" : {
                        "POSITION" : 24,
                        "TEXCOORD_0" : 25,
                        "NORMAL" : 26
                    },
                    "indices" : 27,
                    "material" : 5
                }
            ]
        },
        {
            "name" : "Text.064",
            "primitives" : [
                {
                    "attributes" : {
                        "POSITION" : 28,
                        "TEXCOORD_0" : 29,
                        "NORMAL" : 30
                    },
                    "indices" : 31,
                    "material" : 3
                }
            ]
        }
    ],
    "accessors" : [
        {
            "bufferView" : 0,
            "componentType" : 5126,
            "count" : 32494,
            "max" : [
                31.799970626831055,
                2.491912841796875,
                0.35430479049682617
            ],
            "min" : [
                2.8179731369018555,
                0.29529309272766113,
                -9.801883697509766
            ],
            "type" : "VEC3"
        },
        {
            "bufferView" : 1,
            "componentType" : 5126,
            "count" : 32494,
            "type" : "VEC2"
        },
        {
            "bufferView" : 2,
            "componentType" : 5126,
            "count" : 32494,
            "type" : "VEC3"
        },
        {
            "bufferView" : 3,
            "componentType" : 5123,
            "count" : 86610,
            "type" : "SCALAR"
        },
        {
            "bufferView" : 4,
            "componentType" : 5126,
            "count" : 1717,
            "max" : [
                31.98946762084961,
                2.491912841796875,
                0.49637651443481445
            ],
            "min" : [
                0.7319793701171875,
                0.31437134742736816,
                -9.801883697509766
            ],
            "type" : "VEC3"
        },
        {
            "bufferView" : 5,
            "componentType" : 5126,
            "count" : 1717,
            "type" : "VEC2"
        },
        {
            "bufferView" : 6,
            "componentType" : 5126,
            "count" : 1717,
            "type" : "VEC3"
        },
        {
            "bufferView" : 7,
            "componentType" : 5123,
            "count" : 5322,
            "type" : "SCALAR"
        },
        {
            "bufferView" : 8,
            "componentType" : 5126,
            "count" : 9168,
            "max" : [
                32.00146484375,
                2.491912841796875,
                0.5420951843261719
            ],
            "min" : [
                0.6731100082397461,
                0.29529309272766113,
                -9.801883697509766
            ],
            "type" : "VEC3"
        },
        {
            "bufferView" : 9,
            "componentType" : 5126,
            "count" : 9168,
            "type" : "VEC2"
        },
        {
            "bufferView" : 10,
            "componentType" : 5126,
            "count" : 9168,
            "type" : "VEC3"
        },
        {
            "bufferView" : 11,
            "componentType" : 5123,
            "count" : 24756,
            "type" : "SCALAR"
        },
        {
            "bufferView" : 12,
            "componentType" : 5126,
            "count" : 244,
            "max" : [
                2.621534585952759,
                0.8995609283447266,
                1
            ],
            "min" : [
                -2.22297739982605,
                0,
                -11.797579765319824
            ],
            "type" : "VEC3"
        },
        {
            "bufferView" : 13,
            "componentType" : 5126,
            "count" : 244,
            "type" : "VEC2"
        },
        {
            "bufferView" : 14,
            "componentType" : 5126,
            "count" : 244,
            "type" : "VEC3"
        },
        {
            "bufferView" : 15,
            "componentType" : 5123,
            "count" : 366,
            "type" : "SCALAR"
        },
        {
            "bufferView" : 16,
            "componentType" : 5126,
            "count" : 4,
            "max" : [
                0.9694072008132935,
                0.2844677269458771,
                0.7815260887145996
            ],
            "min" : [
                -0.963671088218689,
                0.07793411612510681,
                -0.9125064611434937
            ],
            "type" : "VEC3"
        },
        {
            "bufferView" : 17,
            "componentType" : 5126,
            "count" : 4,
            "type" : "VEC2"
        },
        {
            "bufferView" : 18,
            "componentType" : 5126,
            "count" : 4,
            "type" : "VEC3"
        },
        {
            "bufferView" : 19,
            "componentType" : 5123,
            "count" : 6,
            "type" : "SCALAR"
        },
        {
            "bufferView" : 20,
            "componentType" : 5126,
            "count" : 625,
            "max" : [
                0.9999999403953552,
                0.3345218300819397,
                0.990520179271698
            ],
            "min" : [
                -0.9999999403953552,
                0,
                -1
            ],
            "type" : "VEC3"
        },
        {
            "bufferView" : 21,
            "componentType" : 5126,
            "count" : 625,
            "type" : "VEC2"
        },
        {
            "bufferView" : 22,
            "componentType" : 5126,
            "count" : 625,
            "type" : "VEC3"
        },
        {
            "bufferView" : 23,
            "componentType" : 5123,
            "count" : 2031,
            "type" : "SCALAR"
        },
        {
            "bufferView" : 24,
            "componentType" : 5126,
            "count" : 3297,
            "max" : [
                -0.6207847595214844,
                0.11510883271694183,
                0.957022488117218
            ],
            "min" : [
                -0.861314058303833,
                0.006674228236079216,
                0.7974705696105957
            ],
            "type" : "VEC3"
        },
        {
            "bufferView" : 25,
            "componentType" : 5126,
            "count" : 3297,
            "type" : "VEC2"
        },
        {
            "bufferView" : 26,
            "componentType" : 5126,
            "count" : 3297,
            "type" : "VEC3"
        },
        {
            "bufferView" : 27,
            "componentType" : 5123,
            "count" : 4269,
            "type" : "SCALAR"
        },
        {
            "bufferView" : 28,
            "componentType" : 5126,
            "count" : 12766,
            "max" : [
                7.837003707885742,
                0,
                23.900707244873047
            ],
            "min" : [
                -78.50288391113281,
                -1.8373651504516602,
                -1.012073040008545
            ],
            "type" : "VEC3"
        },
        {
            "bufferView" : 29,
            "componentType" : 5126,
            "count" : 12766,
            "type" : "VEC2"
        },
        {
            "bufferView" : 30,
            "componentType" : 5126,
            "count" : 12766,
            "type" : "VEC3"
        },
        {
            "bufferView" : 31,
            "componentType" : 5123,
            "count" : 21168,
            "type" : "SCALAR"
        }
    ],
    "bufferViews" : [
        {
            "buffer" : 0,
            "byteLength" : 389928,
            "byteOffset" : 0,
            "target" : 34962
        },
        {
            "buffer" : 0,
            "byteLength" : 259952,
            "byteOffset" : 389928,
            "target" : 34962
        },
        {
            "buffer" : 0,
            "byteLength" : 389928,
            "byteOffset" : 649880,
            "target" : 34962
        },
        {
            "buffer" : 0,
            "byteLength" : 173220,
            "byteOffset" : 1039808,
            "target" : 34963
        },
        {
            "buffer" : 0,
            "byteLength" : 20604,
            "byteOffset" : 1213028,
            "target" : 34962
        },
        {
            "buffer" : 0,
            "byteLength" : 13736,
            "byteOffset" : 1233632,
            "target" : 34962
        },
        {
            "buffer" : 0,
            "byteLength" : 20604,
            "byteOffset" : 1247368,
            "target" : 34962
        },
        {
            "buffer" : 0,
            "byteLength" : 10644,
            "byteOffset" : 1267972,
            "target" : 34963
        },
        {
            "buffer" : 0,
            "byteLength" : 110016,
            "byteOffset" : 1278616,
            "target" : 34962
        },
        {
            "buffer" : 0,
            "byteLength" : 73344,
            "byteOffset" : 1388632,
            "target" : 34962
        },
        {
            "buffer" : 0,
            "byteLength" : 110016,
            "byteOffset" : 1461976,
            "target" : 34962
        },
        {
            "buffer" : 0,
            "byteLength" : 49512,
            "byteOffset" : 1571992,
            "target" : 34963
        },
        {
            "buffer" : 0,
            "byteLength" : 2928,
            "byteOffset" : 1621504,
            "target" : 34962
        },
        {
            "buffer" : 0,
            "byteLength" : 1952,
            "byteOffset" : 1624432,
            "target" : 34962
        },
        {
            "buffer" : 0,
            "byteLength" : 2928,
            "byteOffset" : 1626384,
            "target" : 34962
        },
        {
            "buffer" : 0,
            "byteLength" : 732,
            "byteOffset" : 1629312,
            "target" : 34963
        },
        {
            "buffer" : 0,
            "byteLength" : 48,
            "byteOffset" : 1630044,
            "target" : 34962
        },
        {
            "buffer" : 0,
            "byteLength" : 32,
            "byteOffset" : 1630092,
            "target" : 34962
        },
        {
            "buffer" : 0,
            "byteLength" : 48,
            "byteOffset" : 1630124,
            "target" : 34962
        },
        {
            "buffer" : 0,
            "byteLength" : 12,
            "byteOffset" : 1630172,
            "target" : 34963
        },
        {
            "buffer" : 0,
            "byteLength" : 7500,
            "byteOffset" : 1630184,
            "target" : 34962
        },
        {
            "buffer" : 0,
            "byteLength" : 5000,
            "byteOffset" : 1637684,
            "target" : 34962
        },
        {
            "buffer" : 0,
            "byteLength" : 7500,
            "byteOffset" : 1642684,
            "target" : 34962
        },
        {
            "buffer" : 0,
            "byteLength" : 4062,
            "byteOffset" : 1650184,
            "target" : 34963
        },
        {
            "buffer" : 0,
            "byteLength" : 39564,
            "byteOffset" : 1654248,
            "target" : 34962
        },
        {
            "buffer" : 0,
            "byteLength" : 26376,
            "byteOffset" : 1693812,
            "target" : 34962
        },
        {
            "buffer" : 0,
            "byteLength" : 39564,
            "byteOffset" : 1720188,
            "target" : 34962
        },
        {
            "buffer" : 0,
            "byteLength" : 8538,
            "byteOffset" : 1759752,
            "target" : 34963
        },
        {
            "buffer" : 0,
            "byteLength" : 153192,
            "byteOffset" : 1768292,
            "target" : 34962
        },
        {
            "buffer" : 0,
            "byteLength" : 102128,
            "byteOffset" : 1921484,
            "target" : 34962
        },
        {
            "buffer" : 0,
            "byteLength" : 153192,
            "byteOffset" : 2023612,
            "target" : 34962
        },
        {
            "buffer" : 0,
            "byteLength" : 42336,
            "byteOffset" : 2176804,
            "target" : 34963
        }
    ],
    "buffers" : [
        {
            "byteLength" : 2219140,
            "uri" : "data:application/octet-stream;base64,"
        }
    ]
}
