{
	"asset":{
		"generator":"Khronos glTF Blender I/O v3.6.28",
		"version":"2.0"
	},
	"extensionsUsed":[
		"KHR_materials_transmission",
		"KHR_materials_ior"
	],
	"scene":0,
	"scenes":[
		{
			"name":"Scene",
			"nodes":[
				0,
				1,
				2
			]
		}
	],
	"nodes":[
		{
			"mesh":0,
			"name":"Keys1.036",
			"scale":[
				0.21499134600162506,
				0.21499134600162506,
				0.21499134600162506
			],
			"translation":[
				-3.45867919921875,
				0.3260905146598816,
				1.018194317817688
			]
		},
		{
			"mesh":1,
			"name":"Base",
			"scale":[
				3.508477210998535,
				1.3605163097381592,
				1.3605163097381592
			],
			"translation":[
				0.04822062328457832,
				0.238210067152977,
				0.10447800159454346
			]
		},
		{
			"mesh":2,
			"name":"Text.060",
			"scale":[
				0.0751519575715065,
				0.0751519575715065,
				0.0751519575715065
			],
			"translation":[
				2.6913299560546875,
				0.8744624257087708,
				-0.8598823547363281
			]
		}
	],
	"materials":[
		{
			"doubleSided":true,
			"name":"Keys1",
			"pbrMetallicRoughness":{
				"baseColorFactor":[
					0.783536970615387,
					0.9386850595474243,
					0.6444798707962036,
					1
				],
				"metallicFactor":0
			}
		},
		{
			"doubleSided":true,
			"name":"Keys2",
			"pbrMetallicRoughness":{
				"baseColorFactor":[
					0.6938710808753967,
					0.4620762765407562,
					0.9130987524986267,
					1
				],
				"metallicFactor":0
			}
		},
		{
			"doubleSided":true,
			"name":"Material.001",
			"pbrMetallicRoughness":{
				"baseColorFactor":[
					0.783536970615387,
					0.9386850595474243,
					0.6444798707962036,
					1
				],
				"metallicFactor":0
			}
		},
		{
			"doubleSided":true,
			"name":"Base2",
			"pbrMetallicRoughness":{
				"baseColorFactor":[
					0.29613789916038513,
					0.44520092010498047,
					0.18116432428359985,
					1
				],
				"metallicFactor":0
			}
		},
		{
			"doubleSided":true,
			"name":"Base",
			"pbrMetallicRoughness":{
				"baseColorFactor":[
					0.29613789916038513,
					0.44520092010498047,
					0.18116432428359985,
					1
				],
				"metallicFactor":0
			}
		},
		{
			"doubleSided":true,
			"extensions":{
				"KHR_materials_transmission":{
					"transmissionFactor":0.8503937125205994
				},
				"KHR_materials_ior":{
					"ior":1.4500000476837158
				}
			},
			"name":"text",
			"pbrMetallicRoughness":{
				"baseColorFactor":[
					0.9130997657775879,
					0.8032676577568054,
					0.8282274603843689,
					1
				],
				"metallicFactor":0
			}
		}
	],
	"meshes":[
		{
			"name":"Plane.120",
			"primitives":[
				{
					"attributes":{
						"POSITION":0,
						"NORMAL":1,
						"TEXCOORD_0":2
					},
					"indices":3,
					"material":0
				},
				{
					"attributes":{
						"POSITION":4,
						"NORMAL":5,
						"TEXCOORD_0":6
					},
					"indices":7,
					"material":1
				},
				{
					"attributes":{
						"POSITION":8,
						"NORMAL":9,
						"TEXCOORD_0":10
					},
					"indices":11,
					"material":2
				}
			]
		},
		{
			"name":"Plane.154",
			"primitives":[
				{
					"attributes":{
						"POSITION":12,
						"NORMAL":13,
						"TEXCOORD_0":14
					},
					"indices":15,
					"material":3
				},
				{
					"attributes":{
						"POSITION":16,
						"NORMAL":17,
						"TEXCOORD_0":18
					},
					"indices":19,
					"material":4
				},
				{
					"attributes":{
						"POSITION":20,
						"NORMAL":21,
						"TEXCOORD_0":22
					},
					"indices":23,
					"material":4
				}
			]
		},
		{
			"name":"Text.064",
			"primitives":[
				{
					"attributes":{
						"POSITION":24,
						"NORMAL":25,
						"TEXCOORD_0":26
					},
					"indices":27,
					"material":5
				}
			]
		}
	],
	"accessors":[
		{
			"bufferView":0,
			"componentType":5126,
			"count":24018,
			"max":[
				31.799970626831055,
				2.491912841796875,
				0.35430479049682617
			],
			"min":[
				2.8179731369018555,
				0.29529309272766113,
				-9.801883697509766
			],
			"type":"VEC3"
		},
		{
			"bufferView":1,
			"componentType":5126,
			"count":24018,
			"type":"VEC3"
		},
		{
			"bufferView":2,
			"componentType":5126,
			"count":24018,
			"type":"VEC2"
		},
		{
			"bufferView":3,
			"componentType":5123,
			"count":86610,
			"type":"SCALAR"
		},
		{
			"bufferView":4,
			"componentType":5126,
			"count":1350,
			"max":[
				31.98946762084961,
				2.491912841796875,
				0.49637651443481445
			],
			"min":[
				0.7319793701171875,
				0.31437134742736816,
				-9.801883697509766
			],
			"type":"VEC3"
		},
		{
			"bufferView":5,
			"componentType":5126,
			"count":1350,
			"type":"VEC3"
		},
		{
			"bufferView":6,
			"componentType":5126,
			"count":1350,
			"type":"VEC2"
		},
		{
			"bufferView":7,
			"componentType":5123,
			"count":5322,
			"type":"SCALAR"
		},
		{
			"bufferView":8,
			"componentType":5126,
			"count":6832,
			"max":[
				32.00146484375,
				2.491912841796875,
				0.5420951843261719
			],
			"min":[
				0.6731100082397461,
				0.29529309272766113,
				-9.801883697509766
			],
			"type":"VEC3"
		},
		{
			"bufferView":9,
			"componentType":5126,
			"count":6832,
			"type":"VEC3"
		},
		{
			"bufferView":10,
			"componentType":5126,
			"count":6832,
			"type":"VEC2"
		},
		{
			"bufferView":11,
			"componentType":5123,
			"count":24756,
			"type":"SCALAR"
		},
		{
			"bufferView":12,
			"componentType":5126,
			"count":4,
			"max":[
				0.9694072008132935,
				0.2844677269458771,
				0.7815260887145996
			],
			"min":[
				-0.963671088218689,
				0.07793411612510681,
				-0.9125064611434937
			],
			"type":"VEC3"
		},
		{
			"bufferView":13,
			"componentType":5126,
			"count":4,
			"type":"VEC3"
		},
		{
			"bufferView":14,
			"componentType":5126,
			"count":4,
			"type":"VEC2"
		},
		{
			"bufferView":15,
			"componentType":5123,
			"count":6,
			"type":"SCALAR"
		},
		{
			"bufferView":16,
			"componentType":5126,
			"count":625,
			"max":[
				0.9999999403953552,
				0.3345218300819397,
				0.990520179271698
			],
			"min":[
				-0.9999999403953552,
				0,
				-1
			],
			"type":"VEC3"
		},
		{
			"bufferView":17,
			"componentType":5126,
			"count":625,
			"type":"VEC3"
		},
		{
			"bufferView":18,
			"componentType":5126,
			"count":625,
			"type":"VEC2"
		},
		{
			"bufferView":19,
			"componentType":5123,
			"count":2031,
			"type":"SCALAR"
		},
		{
			"bufferView":20,
			"componentType":5126,
			"count":2816,
			"max":[
				-0.6207847595214844,
				0.11510883271694183,
				0.957022488117218
			],
			"min":[
				-0.861314058303833,
				0.006674228236079216,
				0.7974705696105957
			],
			"type":"VEC3"
		},
		{
			"bufferView":21,
			"componentType":5126,
			"count":2816,
			"type":"VEC3"
		},
		{
			"bufferView":22,
			"componentType":5126,
			"count":2816,
			"type":"VEC2"
		},
		{
			"bufferView":23,
			"componentType":5123,
			"count":4269,
			"type":"SCALAR"
		},
		{
			"bufferView":24,
			"componentType":5126,
			"count":7325,
			"max":[
				7.837003707885742,
				0,
				23.900707244873047
			],
			"min":[
				-78.50288391113281,
				-1.8373651504516602,
				-1.012073040008545
			],
			"type":"VEC3"
		},
		{
			"bufferView":25,
			"componentType":5126,
			"count":7325,
			"type":"VEC3"
		},
		{
			"bufferView":26,
			"componentType":5126,
			"count":7325,
			"type":"VEC2"
		},
		{
			"bufferView":27,
			"componentType":5123,
			"count":21168,
			"type":"SCALAR"
		}
	],
	"bufferViews":[
		{
			"buffer":0,
			"byteLength":288216,
			"byteOffset":0,
			"target":34962
		},
		{
			"buffer":0,
			"byteLength":288216,
			"byteOffset":288216,
			"target":34962
		},
		{
			"buffer":0,
			"byteLength":192144,
			"byteOffset":576432,
			"target":34962
		},
		{
			"buffer":0,
			"byteLength":173220,
			"byteOffset":768576,
			"target":34963
		},
		{
			"buffer":0,
			"byteLength":16200,
			"byteOffset":941796,
			"target":34962
		},
		{
			"buffer":0,
			"byteLength":16200,
			"byteOffset":957996,
			"target":34962
		},
		{
			"buffer":0,
			"byteLength":10800,
			"byteOffset":974196,
			"target":34962
		},
		{
			"buffer":0,
			"byteLength":10644,
			"byteOffset":984996,
			"target":34963
		},
		{
			"buffer":0,
			"byteLength":81984,
			"byteOffset":995640,
			"target":34962
		},
		{
			"buffer":0,
			"byteLength":81984,
			"byteOffset":1077624,
			"target":34962
		},
		{
			"buffer":0,
			"byteLength":54656,
			"byteOffset":1159608,
			"target":34962
		},
		{
			"buffer":0,
			"byteLength":49512,
			"byteOffset":1214264,
			"target":34963
		},
		{
			"buffer":0,
			"byteLength":48,
			"byteOffset":1263776,
			"target":34962
		},
		{
			"buffer":0,
			"byteLength":48,
			"byteOffset":1263824,
			"target":34962
		},
		{
			"buffer":0,
			"byteLength":32,
			"byteOffset":1263872,
			"target":34962
		},
		{
			"buffer":0,
			"byteLength":12,
			"byteOffset":1263904,
			"target":34963
		},
		{
			"buffer":0,
			"byteLength":7500,
			"byteOffset":1263916,
			"target":34962
		},
		{
			"buffer":0,
			"byteLength":7500,
			"byteOffset":1271416,
			"target":34962
		},
		{
			"buffer":0,
			"byteLength":5000,
			"byteOffset":1278916,
			"target":34962
		},
		{
			"buffer":0,
			"byteLength":4062,
			"byteOffset":1283916,
			"target":34963
		},
		{
			"buffer":0,
			"byteLength":33792,
			"byteOffset":1287980,
			"target":34962
		},
		{
			"buffer":0,
			"byteLength":33792,
			"byteOffset":1321772,
			"target":34962
		},
		{
			"buffer":0,
			"byteLength":22528,
			"byteOffset":1355564,
			"target":34962
		},
		{
			"buffer":0,
			"byteLength":8538,
			"byteOffset":1378092,
			"target":34963
		},
		{
			"buffer":0,
			"byteLength":87900,
			"byteOffset":1386632,
			"target":34962
		},
		{
			"buffer":0,
			"byteLength":87900,
			"byteOffset":1474532,
			"target":34962
		},
		{
			"buffer":0,
			"byteLength":58600,
			"byteOffset":1562432,
			"target":34962
		},
		{
			"buffer":0,
			"byteLength":42336,
			"byteOffset":1621032,
			"target":34963
		}
	],
	"buffers":[
		{
			"byteLength":1663368,
			"uri":"data:application/octet-stream;base64,"
		}
	]
}
