{
	"asset":{
		"generator":"Khronos glTF Blender I/O v3.6.28",
		"version":"2.0"
	},
	"extensionsUsed":[
		"KHR_materials_transmission",
		"KHR_materials_ior"
	],
	"scene":0,
	"scenes":[
		{
			"name":"Scene",
			"nodes":[
				0,
				1,
				2,
				3
			]
		}
	],
	"nodes":[
		{
			"mesh":0,
			"name":"Base",
			"scale":[
				1.0439964532852173,
				1,
				1.5029534101486206
			],
			"translation":[
				0,
				0.013594284653663635,
				0
			]
		},
		{
			"mesh":1,
			"name":"Keys1",
			"scale":[
				0.21499134600162506,
				0.21499134600162506,
				0.21499134600162506
			],
			"translation":[
				-0.6840237379074097,
				0.34223949909210205,
				-0.633490800857544
			]
		},
		{
			"mesh":2,
			"name":"Keys2",
			"scale":[
				0.21499134600162506,
				0.21499134600162506,
				0.21499134600162506
			],
			"translation":[
				-0.6840237379074097,
				0.34223949909210205,
				-0.633490800857544
			]
		},
		{
			"mesh":3,
			"name":"Text",
			"scale":[
				0.11801519244909286,
				0.11801519244909286,
				0.11801519244909286
			],
			"translation":[
				0.6353992223739624,
				0.7057024240493774,
				-1.153577208518982
			]
		}
	],
	"materials":[
		{
			"doubleSided":true,
			"name":"Base",
			"pbrMetallicRoughness":{
				"baseColorFactor":[
					0.3813256025314331,
					0.4452008008956909,
					0.3915725350379944,
					1
				],
				"metallicFactor":0
			}
		},
		{
			"doubleSided":true,
			"name":"Base2",
			"pbrMetallicRoughness":{
				"baseColorFactor":[
					0.3813256025314331,
					0.4452008008956909,
					0.3915725350379944,
					1
				],
				"metallicFactor":0
			}
		},
		{
			"doubleSided":true,
			"name":"Keys1",
			"pbrMetallicRoughness":{
				"baseColorFactor":[
					0.783536970615387,
					0.9386850595474243,
					0.6444798707962036,
					1
				],
				"metallicFactor":0
			}
		},
		{
			"doubleSided":true,
			"name":"Keys2",
			"pbrMetallicRoughness":{
				"baseColorFactor":[
					0.2086360901594162,
					0.47353100776672363,
					0.7681511640548706,
					1
				],
				"metallicFactor":0
			}
		},
		{
			"doubleSided":true,
			"emissiveFactor":[
				0.16795802116394043,
				0.16205689311027527,
				0.15745557844638824
			],
			"extensions":{
				"KHR_materials_transmission":{
					"transmissionFactor":0.8503937125205994
				},
				"KHR_materials_ior":{
					"ior":1.4500000476837158
				}
			},
			"name":"text",
			"pbrMetallicRoughness":{
				"baseColorFactor":[
					0,
					0,
					0,
					1
				],
				"metallicFactor":0
			}
		}
	],
	"meshes":[
		{
			"name":"Plane.023",
			"primitives":[
				{
					"attributes":{
						"POSITION":0,
						"NORMAL":1,
						"TEXCOORD_0":2
					},
					"indices":3,
					"material":0
				},
				{
					"attributes":{
						"POSITION":4,
						"NORMAL":5,
						"TEXCOORD_0":6
					},
					"indices":7,
					"material":1
				}
			]
		},
		{
			"name":"Plane.053",
			"primitives":[
				{
					"attributes":{
						"POSITION":8,
						"NORMAL":9,
						"TEXCOORD_0":10
					},
					"indices":11,
					"material":2
				}
			]
		},
		{
			"name":"Plane.065",
			"primitives":[
				{
					"attributes":{
						"POSITION":12,
						"NORMAL":13,
						"TEXCOORD_0":14
					},
					"indices":15,
					"material":3
				}
			]
		},
		{
			"name":"Text.030",
			"primitives":[
				{
					"attributes":{
						"POSITION":16,
						"NORMAL":17,
						"TEXCOORD_0":18
					},
					"indices":19,
					"material":4
				}
			]
		}
	],
	"accessors":[
		{
			"bufferView":0,
			"componentType":5126,
			"count":1258,
			"max":[
				0.9999999403953552,
				0.553671658039093,
				1.12852942943573
			],
			"min":[
				-0.9999999403953552,
				0,
				-1.0048744678497314
			],
			"type":"VEC3"
		},
		{
			"bufferView":1,
			"componentType":5126,
			"count":1258,
			"type":"VEC3"
		},
		{
			"bufferView":2,
			"componentType":5126,
			"count":1258,
			"type":"VEC2"
		},
		{
			"bufferView":3,
			"componentType":5123,
			"count":3498,
			"type":"SCALAR"
		},
		{
			"bufferView":4,
			"componentType":5126,
			"count":64,
			"max":[
				0.9817319512367249,
				0.5524984002113342,
				1.0006239414215088
			],
			"min":[
				-0.9817319512367249,
				0.10492230951786041,
				-0.9881578087806702
			],
			"type":"VEC3"
		},
		{
			"bufferView":5,
			"componentType":5126,
			"count":64,
			"type":"VEC3"
		},
		{
			"bufferView":6,
			"componentType":5126,
			"count":64,
			"type":"VEC2"
		},
		{
			"bufferView":7,
			"componentType":5123,
			"count":138,
			"type":"SCALAR"
		},
		{
			"bufferView":8,
			"componentType":5126,
			"count":8160,
			"max":[
				7.412745475769043,
				1.8158817291259766,
				9.502863883972168
			],
			"min":[
				-0.9999995231628418,
				-0.7709430456161499,
				-3.5438990592956543
			],
			"type":"VEC3"
		},
		{
			"bufferView":9,
			"componentType":5126,
			"count":8160,
			"type":"VEC3"
		},
		{
			"bufferView":10,
			"componentType":5126,
			"count":8160,
			"type":"VEC2"
		},
		{
			"bufferView":11,
			"componentType":5123,
			"count":30720,
			"type":"SCALAR"
		},
		{
			"bufferView":12,
			"componentType":5126,
			"count":3060,
			"max":[
				7.385186195373535,
				1.3403136730194092,
				9.51453971862793
			],
			"min":[
				-0.9999997615814209,
				-0.7709430456161499,
				-1.0000004768371582
			],
			"type":"VEC3"
		},
		{
			"bufferView":13,
			"componentType":5126,
			"count":3060,
			"type":"VEC3"
		},
		{
			"bufferView":14,
			"componentType":5126,
			"count":3060,
			"type":"VEC2"
		},
		{
			"bufferView":15,
			"componentType":5123,
			"count":11520,
			"type":"SCALAR"
		},
		{
			"bufferView":16,
			"componentType":5126,
			"count":8819,
			"max":[
				0.8476113080978394,
				0.16530513763427734,
				20.09355354309082
			],
			"min":[
				-12.234001159667969,
				-2.271263360977173,
				-0.7191476821899414
			],
			"type":"VEC3"
		},
		{
			"bufferView":17,
			"componentType":5126,
			"count":8819,
			"type":"VEC3"
		},
		{
			"bufferView":18,
			"componentType":5126,
			"count":8819,
			"type":"VEC2"
		},
		{
			"bufferView":19,
			"componentType":5123,
			"count":10311,
			"type":"SCALAR"
		}
	],
	"bufferViews":[
		{
			"buffer":0,
			"byteLength":15096,
			"byteOffset":0,
			"target":34962
		},
		{
			"buffer":0,
			"byteLength":15096,
			"byteOffset":15096,
			"target":34962
		},
		{
			"buffer":0,
			"byteLength":10064,
			"byteOffset":30192,
			"target":34962
		},
		{
			"buffer":0,
			"byteLength":6996,
			"byteOffset":40256,
			"target":34963
		},
		{
			"buffer":0,
			"byteLength":768,
			"byteOffset":47252,
			"target":34962
		},
		{
			"buffer":0,
			"byteLength":768,
			"byteOffset":48020,
			"target":34962
		},
		{
			"buffer":0,
			"byteLength":512,
			"byteOffset":48788,
			"target":34962
		},
		{
			"buffer":0,
			"byteLength":276,
			"byteOffset":49300,
			"target":34963
		},
		{
			"buffer":0,
			"byteLength":97920,
			"byteOffset":49576,
			"target":34962
		},
		{
			"buffer":0,
			"byteLength":97920,
			"byteOffset":147496,
			"target":34962
		},
		{
			"buffer":0,
			"byteLength":65280,
			"byteOffset":245416,
			"target":34962
		},
		{
			"buffer":0,
			"byteLength":61440,
			"byteOffset":310696,
			"target":34963
		},
		{
			"buffer":0,
			"byteLength":36720,
			"byteOffset":372136,
			"target":34962
		},
		{
			"buffer":0,
			"byteLength":36720,
			"byteOffset":408856,
			"target":34962
		},
		{
			"buffer":0,
			"byteLength":24480,
			"byteOffset":445576,
			"target":34962
		},
		{
			"buffer":0,
			"byteLength":23040,
			"byteOffset":470056,
			"target":34963
		},
		{
			"buffer":0,
			"byteLength":105828,
			"byteOffset":493096,
			"target":34962
		},
		{
			"buffer":0,
			"byteLength":105828,
			"byteOffset":598924,
			"target":34962
		},
		{
			"buffer":0,
			"byteLength":70552,
			"byteOffset":704752,
			"target":34962
		},
		{
			"buffer":0,
			"byteLength":20622,
			"byteOffset":775304,
			"target":34963
		}
	],
	"buffers":[
		{
			"byteLength":795928,
			"uri":"data:application/octet-stream;base64,"
		}
	]
}
